<svg width="850" height="221" viewBox="0 0 850 221" fill="none" xmlns="http://www.w3.org/2000/svg">
<rect y="0.666016" width="850" height="220" rx="30" fill="#1242CA"/>
<path d="M212.24 124.691C212.24 127.59 213.19 129.39 215.09 130.037C216.089 130.285 217.437 130.484 219.237 130.539C219.535 130.589 219.888 130.589 220.187 130.589H222.036V141.782C221.236 141.832 220.137 141.881 218.789 141.881C209.391 141.881 203.195 138.535 200.296 131.886C199.545 129.937 199.048 128.087 198.899 126.287C198.849 125.785 198.8 125.089 198.8 124.189V80.8576L212.246 78.5107V124.691H212.24Z" fill="white"/>
<path d="M226.139 123.394V98.4014H239.685V125.84C239.685 128.54 240.982 130.186 243.583 130.788C244.682 130.887 245.582 130.937 246.184 130.887C248.282 130.738 250.182 130.136 251.982 129.037L252.082 98.451H265.528V141.683H254.434L253.782 140.534C253.683 140.385 253.633 140.236 253.583 140.087C253.434 139.739 253.335 139.386 253.236 138.988L249.337 140.689C248.139 141.086 246.941 141.44 245.786 141.688C244.284 141.986 242.788 142.191 241.286 142.24C238.188 142.39 235.736 142.141 233.837 141.39C231.44 140.49 229.436 138.74 227.84 136.144C226.686 133.891 226.139 129.639 226.139 123.394Z" fill="white"/>
<path d="M284.562 117.496H284.662L296.705 98.4011H311.051L297.854 119.34L311.051 141.633H296.705L284.662 121.538H284.562V141.633H271.265V80.9074L284.562 78.5605V117.496Z" fill="white"/>
<path d="M362.284 124.691C362.284 127.59 363.234 129.39 365.133 130.037C366.133 130.285 367.48 130.484 369.28 130.539C369.578 130.589 369.932 130.589 370.23 130.589H372.08V141.782C371.279 141.832 370.18 141.881 368.833 141.881C359.434 141.881 353.239 138.535 350.34 131.886C349.589 129.937 349.092 128.087 348.943 126.287C348.893 125.785 348.843 125.089 348.843 124.189V80.8576L362.289 78.5107V124.691H362.284Z" fill="white"/>
<path d="M412.313 115.044V141.633H401.269L401.17 141.235C401.12 141.036 401.07 140.937 401.07 140.837C400.971 140.589 400.872 140.285 400.772 139.937L400.673 138.938C396.625 141.036 392.627 142.085 388.778 142.085H387.63C383.632 142.085 380.484 140.534 378.132 137.486C376.58 135.089 375.785 132.389 375.785 129.44V129.142C375.785 123.896 377.635 120.445 381.285 118.744C382.787 117.744 386.581 117.242 392.732 117.242H398.978V115.795C398.978 112.797 398.53 111.046 397.68 110.599C396.73 109.898 395.029 109.55 392.633 109.55H380.186L381.384 98.5059H394.781C403.279 98.5059 408.575 100.604 410.623 104.851C411.717 107.297 412.313 110.698 412.313 115.044ZM394.472 126.094C391.871 126.094 390.325 126.342 389.772 126.894C389.375 127.342 389.121 128.093 389.121 129.192C389.121 131.588 390.319 132.742 392.771 132.742C394.218 132.742 396.272 132.14 398.967 130.942V126.094H394.472Z" fill="white"/>
<path d="M430.906 117.496H431.005L443.049 98.4011H457.395L444.197 119.34L457.395 141.633H443.049L431.005 121.538H430.906V141.633H417.609V80.9074L430.906 78.5605V117.496Z" fill="white"/>
<path d="M332.244 128.242C332.692 128.491 333.194 128.341 333.443 127.994C333.542 127.844 333.592 127.695 333.592 127.546C333.592 127.447 333.592 127.397 333.592 127.298C333.592 122.251 333.592 117.253 333.592 112.206C333.592 111.759 333.343 111.406 332.89 111.306C332.692 111.256 332.493 111.306 332.289 111.406C330.488 112.455 328.688 113.504 326.888 114.503C325.187 115.503 323.437 116.502 321.742 117.502C320.841 118.004 319.941 118.551 319.041 119.053C318.439 119.401 318.439 120.202 319.041 120.555C320.549 121.445 330.748 127.342 332.244 128.242Z" fill="white"/>
<path d="M485.226 64.7056V156.923" stroke="white" stroke-width="1.6566" stroke-miterlimit="10"/>
<path d="M529.933 87.8749L526.777 103.624H523.268L523.622 101.884C522.206 103.181 520.427 103.83 518.284 103.83C516.554 103.83 515.167 103.368 514.125 102.444C513.103 101.5 512.592 100.183 512.592 98.492C512.592 97.8628 512.661 97.2336 512.798 96.6045L514.538 87.8749H518.225L516.485 96.516C516.406 96.9092 516.367 97.3123 516.367 97.7252C516.367 98.6492 516.622 99.357 517.134 99.8486C517.664 100.34 518.451 100.586 519.493 100.586C520.83 100.586 521.941 100.212 522.825 99.4652C523.71 98.6984 524.3 97.558 524.595 96.0441L526.246 87.8749H529.933ZM543.312 87.6979C545.082 87.6979 546.478 88.16 547.5 89.0841C548.542 90.0081 549.063 91.3156 549.063 93.0065C549.063 93.4783 548.994 94.1075 548.857 94.894L547.117 103.624H543.43L545.141 94.9824C545.22 94.5892 545.259 94.1861 545.259 93.7733C545.259 91.8661 544.207 90.9126 542.103 90.9126C540.747 90.9126 539.626 91.2959 538.741 92.0627C537.856 92.8099 537.257 93.9404 536.942 95.4543L535.291 103.624H531.604L534.73 87.8749H538.24L537.886 89.6149C539.301 88.3369 541.11 87.6979 543.312 87.6979ZM554.919 87.8749H558.606L555.48 103.624H551.793L554.919 87.8749ZM557.603 85.2796C556.954 85.2796 556.424 85.083 556.011 84.6898C555.598 84.2769 555.391 83.7854 555.391 83.2152C555.391 82.5467 555.617 81.9864 556.07 81.5341C556.542 81.0819 557.151 80.8558 557.898 80.8558C558.547 80.8558 559.078 81.0524 559.491 81.4457C559.904 81.8192 560.11 82.2813 560.11 82.8318C560.11 83.5593 559.874 84.1491 559.402 84.6013C558.95 85.0535 558.35 85.2796 557.603 85.2796ZM570.493 84.5128C569.726 84.5128 569.117 84.7291 568.665 85.1616C568.212 85.5942 567.888 86.2528 567.691 87.1376L567.514 87.9929H571.82L571.23 90.942H567.013L564.477 103.624H560.79L563.326 90.942H560.761L561.351 87.9929H563.916L564.152 86.8722C564.506 85.1813 565.214 83.8738 566.276 82.9498C567.357 82.006 568.763 81.5341 570.493 81.5341C571.181 81.5341 571.82 81.6128 572.41 81.7701C573.019 81.9274 573.531 82.1633 573.944 82.4779L572.439 85.1616C571.909 84.7291 571.26 84.5128 570.493 84.5128ZM576.686 87.8749H580.373L577.247 103.624H573.56L576.686 87.8749ZM579.37 85.2796C578.721 85.2796 578.19 85.083 577.777 84.6898C577.365 84.2769 577.158 83.7854 577.158 83.2152C577.158 82.5467 577.384 81.9864 577.836 81.5341C578.308 81.0819 578.918 80.8558 579.665 80.8558C580.314 80.8558 580.845 81.0524 581.258 81.4457C581.67 81.8192 581.877 82.2813 581.877 82.8318C581.877 83.5593 581.641 84.1491 581.169 84.6013C580.717 85.0535 580.117 85.2796 579.37 85.2796ZM598.578 94.599C598.578 95.3658 598.499 96.1129 598.342 96.8404H585.837C585.896 99.416 587.41 100.704 590.379 100.704C591.283 100.704 592.129 100.566 592.915 100.291C593.702 99.996 594.37 99.593 594.921 99.0818L596.454 101.648C595.648 102.375 594.675 102.926 593.534 103.299C592.414 103.653 591.234 103.83 589.995 103.83C588.423 103.83 587.046 103.545 585.867 102.975C584.707 102.405 583.812 101.598 583.183 100.556C582.554 99.4947 582.239 98.2757 582.239 96.8994C582.239 95.1495 582.622 93.5766 583.389 92.1807C584.176 90.7651 585.257 89.6641 586.633 88.8776C588.029 88.0912 589.592 87.6979 591.323 87.6979C593.525 87.6979 595.284 88.3173 596.602 89.5559C597.919 90.7749 598.578 92.456 598.578 94.599ZM591.146 90.6471C589.907 90.6471 588.845 90.9814 587.96 91.6498C587.095 92.3183 586.496 93.2326 586.161 94.3926H595.186C595.206 93.2129 594.842 92.2987 594.095 91.6498C593.367 90.9814 592.384 90.6471 591.146 90.6471ZM620.111 81.7406L615.746 103.624H612.236L612.561 102.001C611.145 103.22 609.445 103.83 607.459 103.83C606.161 103.83 604.981 103.555 603.92 103.004C602.878 102.454 602.052 101.657 601.442 100.615C600.833 99.5537 600.528 98.315 600.528 96.8994C600.528 95.1299 600.912 93.5472 601.678 92.1512C602.445 90.7553 603.497 89.6641 604.834 88.8776C606.191 88.0912 607.704 87.6979 609.376 87.6979C610.614 87.6979 611.686 87.9044 612.59 88.3173C613.514 88.7302 614.232 89.3397 614.743 90.1458L616.424 81.7406H620.111ZM608.402 100.674C609.425 100.674 610.349 100.429 611.175 99.9371C612 99.4259 612.639 98.7279 613.092 97.8431C613.564 96.9387 613.799 95.9163 613.799 94.776C613.799 93.5373 613.436 92.5739 612.708 91.8858C611.981 91.178 610.958 90.8241 609.641 90.8241C608.619 90.8241 607.695 91.0797 606.869 91.5909C606.043 92.0824 605.394 92.7804 604.922 93.6848C604.47 94.5695 604.244 95.5821 604.244 96.7224C604.244 97.9611 604.608 98.9343 605.335 99.6421C606.063 100.33 607.085 100.674 608.402 100.674ZM647.741 94.3631C646.975 96.3096 646.06 97.9316 644.999 99.2293L646.975 101.589L644.527 103.948L642.551 101.618C640.467 103.152 638.147 103.918 635.591 103.918C634.195 103.918 632.966 103.712 631.904 103.299C630.843 102.886 630.017 102.306 629.427 101.559C628.837 100.792 628.542 99.8977 628.542 98.8753C628.542 97.4597 629.034 96.2113 630.017 95.1299C631.019 94.0485 632.524 93.0261 634.529 92.0627C633.585 90.8241 633.113 89.5854 633.113 88.3468C633.113 87.2064 633.398 86.2135 633.969 85.3681C634.539 84.5227 635.315 83.8738 636.299 83.4216C637.282 82.9694 638.383 82.7433 639.602 82.7433C641.155 82.7433 642.403 83.107 643.347 83.8345C644.31 84.5423 644.792 85.5254 644.792 86.7837C644.792 88.0224 644.35 89.1037 643.465 90.0278C642.6 90.9519 641.263 91.8465 639.454 92.7116L643.023 96.9289C643.73 95.9458 644.36 94.7662 644.91 93.3899L647.741 94.3631ZM639.484 85.3681C638.579 85.3681 637.852 85.6139 637.301 86.1054C636.77 86.5772 636.505 87.2064 636.505 87.9929C636.505 88.3861 636.593 88.7891 636.77 89.202C636.967 89.6149 637.291 90.1064 637.744 90.6766C639.238 90.0081 640.26 89.4183 640.811 88.9071C641.361 88.3763 641.637 87.7668 641.637 87.0786C641.637 86.5871 641.44 86.184 641.047 85.8694C640.673 85.5352 640.152 85.3681 639.484 85.3681ZM635.945 100.91C637.616 100.91 639.179 100.389 640.634 99.3472L636.24 94.1272C634.824 94.7956 633.802 95.4445 633.172 96.0736C632.543 96.7028 632.229 97.4302 632.229 98.256C632.229 99.0621 632.543 99.711 633.172 100.202C633.821 100.674 634.745 100.91 635.945 100.91Z" fill="white"/>
<path d="M529.933 125.474L526.777 141.223H523.268L523.622 139.483C522.206 140.78 520.427 141.429 518.284 141.429C516.554 141.429 515.167 140.967 514.125 140.043C513.103 139.099 512.592 137.782 512.592 136.091C512.592 135.462 512.661 134.833 512.798 134.204L514.538 125.474H518.225L516.485 134.115C516.406 134.508 516.367 134.911 516.367 135.324C516.367 136.248 516.622 136.956 517.134 137.448C517.664 137.939 518.451 138.185 519.493 138.185C520.83 138.185 521.941 137.811 522.825 137.064C523.71 136.298 524.3 135.157 524.595 133.643L526.246 125.474H529.933ZM543.312 125.297C545.082 125.297 546.478 125.759 547.5 126.683C548.542 127.607 549.063 128.915 549.063 130.606C549.063 131.077 548.994 131.707 548.857 132.493L547.117 141.223H543.43L545.141 132.582C545.22 132.188 545.259 131.785 545.259 131.372C545.259 129.465 544.207 128.512 542.103 128.512C540.747 128.512 539.626 128.895 538.741 129.662C537.856 130.409 537.257 131.54 536.942 133.053L535.291 141.223H531.604L534.73 125.474H538.24L537.886 127.214C539.301 125.936 541.11 125.297 543.312 125.297ZM554.919 125.474H558.606L555.48 141.223H551.793L554.919 125.474ZM557.603 122.879C556.954 122.879 556.424 122.682 556.011 122.289C555.598 121.876 555.391 121.384 555.391 120.814C555.391 120.146 555.617 119.585 556.07 119.133C556.542 118.681 557.151 118.455 557.898 118.455C558.547 118.455 559.078 118.652 559.491 119.045C559.904 119.418 560.11 119.88 560.11 120.431C560.11 121.158 559.874 121.748 559.402 122.2C558.95 122.653 558.35 122.879 557.603 122.879ZM578.22 125.474L568.34 141.223H564.536L560.908 125.474H564.536L567.16 137.182L574.504 125.474H578.22ZM593.422 132.198C593.422 132.965 593.344 133.712 593.186 134.44H580.682C580.741 137.015 582.255 138.303 585.223 138.303C586.128 138.303 586.973 138.165 587.76 137.89C588.546 137.595 589.215 137.192 589.765 136.681L591.299 139.247C590.493 139.974 589.519 140.525 588.379 140.898C587.258 141.252 586.079 141.429 584.84 141.429C583.267 141.429 581.891 141.144 580.711 140.574C579.551 140.004 578.657 139.198 578.027 138.156C577.398 137.094 577.084 135.875 577.084 134.499C577.084 132.749 577.467 131.176 578.234 129.78C579.02 128.364 580.102 127.263 581.478 126.477C582.874 125.69 584.437 125.297 586.167 125.297C588.369 125.297 590.129 125.916 591.446 127.155C592.764 128.374 593.422 130.055 593.422 132.198ZM585.99 128.246C584.752 128.246 583.69 128.58 582.805 129.249C581.94 129.917 581.34 130.832 581.006 131.992H590.031C590.05 130.812 589.687 129.898 588.939 129.249C588.212 128.58 587.229 128.246 585.99 128.246ZM601.419 127.509C602.107 126.703 602.942 126.133 603.925 125.798C604.928 125.464 606.118 125.297 607.494 125.297L606.816 128.807C606.481 128.748 606.177 128.718 605.901 128.718C602.893 128.718 601.075 130.301 600.445 133.466L598.882 141.223H595.196L598.322 125.474H601.832L601.419 127.509ZM612.861 141.429C611.524 141.429 610.246 141.272 609.027 140.957C607.828 140.623 606.894 140.21 606.226 139.719L607.759 136.887C608.408 137.359 609.224 137.733 610.207 138.008C611.19 138.283 612.203 138.421 613.245 138.421C614.424 138.421 615.309 138.264 615.899 137.949C616.508 137.615 616.813 137.143 616.813 136.533C616.813 136.062 616.558 135.718 616.046 135.501C615.555 135.285 614.768 135.059 613.687 134.823C612.566 134.607 611.642 134.381 610.915 134.145C610.207 133.889 609.588 133.486 609.057 132.935C608.546 132.365 608.29 131.589 608.29 130.606C608.29 128.974 608.968 127.686 610.325 126.742C611.701 125.779 613.52 125.297 615.781 125.297C616.862 125.297 617.914 125.425 618.937 125.68C619.959 125.916 620.795 126.241 621.443 126.654L620.087 129.485C619.438 129.072 618.701 128.767 617.875 128.571C617.069 128.374 616.253 128.276 615.427 128.276C614.267 128.276 613.382 128.453 612.773 128.807C612.183 129.16 611.888 129.623 611.888 130.193C611.888 130.704 612.144 131.077 612.655 131.313C613.186 131.53 614.002 131.756 615.103 131.992C616.204 132.208 617.108 132.444 617.816 132.7C618.524 132.935 619.133 133.329 619.644 133.879C620.156 134.43 620.411 135.177 620.411 136.121C620.411 137.811 619.723 139.119 618.347 140.043C616.97 140.967 615.142 141.429 612.861 141.429ZM641.193 125.474L638.066 141.223H634.557L634.881 139.601C633.505 140.82 631.794 141.429 629.75 141.429C628.452 141.429 627.272 141.154 626.211 140.603C625.169 140.053 624.343 139.257 623.733 138.214C623.124 137.153 622.819 135.914 622.819 134.499C622.819 132.749 623.203 131.176 623.969 129.78C624.756 128.364 625.817 127.263 627.154 126.477C628.511 125.69 630.025 125.297 631.696 125.297C634.213 125.297 636.002 126.133 637.064 127.804L637.506 125.474H641.193ZM630.693 138.273C631.736 138.273 632.66 138.028 633.466 137.536C634.291 137.025 634.94 136.327 635.412 135.442C635.884 134.538 636.12 133.515 636.12 132.375C636.12 131.136 635.756 130.173 635.029 129.485C634.301 128.777 633.279 128.423 631.962 128.423C630.92 128.423 629.986 128.679 629.16 129.19C628.354 129.682 627.715 130.379 627.243 131.284C626.771 132.169 626.535 133.181 626.535 134.322C626.535 135.56 626.899 136.533 627.626 137.241C628.354 137.929 629.376 138.273 630.693 138.273ZM647.255 119.34H650.941L646.576 141.223H642.89L647.255 119.34Z" fill="white"/>
</svg>
